<mxfile host="app.diagrams.net" modified="2023-09-21T12:04:56.639Z" agent="Mozilla/5.0 (Windows NT 10.0; Win64; x64) AppleWebKit/537.36 (KHTML, like Gecko) Chrome/116.0.0.0 Safari/537.36" etag="mzaYoXzROGILx07M6ZI9" version="21.7.5" type="device">
  <diagram name="1 oldal" id="XF6Nv4jn9FqUHRNMDE5S">
    <mxGraphModel dx="1687" dy="929" grid="1" gridSize="10" guides="1" tooltips="1" connect="1" arrows="1" fold="1" page="1" pageScale="1" pageWidth="827" pageHeight="1169" math="0" shadow="0">
      <root>
        <mxCell id="0" />
        <mxCell id="1" parent="0" />
        <mxCell id="VEz_0GK65mq92pz9YE2m-1" value="Csapat" style="rounded=0;whiteSpace=wrap;html=1;" vertex="1" parent="1">
          <mxGeometry x="140" y="200" width="120" height="60" as="geometry" />
        </mxCell>
        <mxCell id="VEz_0GK65mq92pz9YE2m-2" value="Játékos" style="rounded=0;whiteSpace=wrap;html=1;" vertex="1" parent="1">
          <mxGeometry x="630" y="200" width="120" height="60" as="geometry" />
        </mxCell>
        <mxCell id="VEz_0GK65mq92pz9YE2m-3" value="Nev" style="ellipse;whiteSpace=wrap;html=1;" vertex="1" parent="1">
          <mxGeometry x="630" y="80" width="120" height="80" as="geometry" />
        </mxCell>
        <mxCell id="VEz_0GK65mq92pz9YE2m-4" value="Logo" style="ellipse;whiteSpace=wrap;html=1;" vertex="1" parent="1">
          <mxGeometry x="140" y="80" width="120" height="80" as="geometry" />
        </mxCell>
        <mxCell id="VEz_0GK65mq92pz9YE2m-5" value="Név" style="ellipse;whiteSpace=wrap;html=1;" vertex="1" parent="1">
          <mxGeometry y="190" width="120" height="80" as="geometry" />
        </mxCell>
        <mxCell id="VEz_0GK65mq92pz9YE2m-6" value="Edző" style="ellipse;whiteSpace=wrap;html=1;" vertex="1" parent="1">
          <mxGeometry x="140" y="320" width="120" height="80" as="geometry" />
        </mxCell>
        <mxCell id="VEz_0GK65mq92pz9YE2m-7" value="Játékosa" style="rhombus;whiteSpace=wrap;html=1;" vertex="1" parent="1">
          <mxGeometry x="420" y="190" width="80" height="80" as="geometry" />
        </mxCell>
        <mxCell id="VEz_0GK65mq92pz9YE2m-8" value="Mezszam" style="ellipse;whiteSpace=wrap;html=1;" vertex="1" parent="1">
          <mxGeometry x="400" y="80" width="120" height="80" as="geometry" />
        </mxCell>
        <mxCell id="VEz_0GK65mq92pz9YE2m-9" value="" style="endArrow=none;html=1;rounded=0;entryX=0;entryY=0.5;entryDx=0;entryDy=0;exitX=1;exitY=0.5;exitDx=0;exitDy=0;" edge="1" parent="1" source="VEz_0GK65mq92pz9YE2m-7" target="VEz_0GK65mq92pz9YE2m-2">
          <mxGeometry width="50" height="50" relative="1" as="geometry">
            <mxPoint x="520" y="300" as="sourcePoint" />
            <mxPoint x="570" y="250" as="targetPoint" />
          </mxGeometry>
        </mxCell>
        <mxCell id="VEz_0GK65mq92pz9YE2m-10" value="" style="endArrow=none;html=1;rounded=0;exitX=0.5;exitY=0;exitDx=0;exitDy=0;entryX=0.5;entryY=1;entryDx=0;entryDy=0;" edge="1" parent="1" source="VEz_0GK65mq92pz9YE2m-7" target="VEz_0GK65mq92pz9YE2m-8">
          <mxGeometry width="50" height="50" relative="1" as="geometry">
            <mxPoint x="390" y="200" as="sourcePoint" />
            <mxPoint x="440" y="150" as="targetPoint" />
          </mxGeometry>
        </mxCell>
        <mxCell id="VEz_0GK65mq92pz9YE2m-11" value="" style="endArrow=none;html=1;rounded=0;entryX=0.5;entryY=1;entryDx=0;entryDy=0;exitX=0.5;exitY=0;exitDx=0;exitDy=0;" edge="1" parent="1" source="VEz_0GK65mq92pz9YE2m-2" target="VEz_0GK65mq92pz9YE2m-3">
          <mxGeometry width="50" height="50" relative="1" as="geometry">
            <mxPoint x="640" y="210" as="sourcePoint" />
            <mxPoint x="690" y="160" as="targetPoint" />
          </mxGeometry>
        </mxCell>
        <mxCell id="VEz_0GK65mq92pz9YE2m-12" value="" style="endArrow=none;html=1;rounded=0;entryX=0.5;entryY=1;entryDx=0;entryDy=0;exitX=0.5;exitY=0;exitDx=0;exitDy=0;" edge="1" parent="1" source="VEz_0GK65mq92pz9YE2m-1" target="VEz_0GK65mq92pz9YE2m-4">
          <mxGeometry width="50" height="50" relative="1" as="geometry">
            <mxPoint x="170" y="200" as="sourcePoint" />
            <mxPoint x="220" y="150" as="targetPoint" />
          </mxGeometry>
        </mxCell>
        <mxCell id="VEz_0GK65mq92pz9YE2m-13" value="" style="endArrow=none;html=1;rounded=0;entryX=0;entryY=0.5;entryDx=0;entryDy=0;exitX=1;exitY=0.5;exitDx=0;exitDy=0;" edge="1" parent="1" source="VEz_0GK65mq92pz9YE2m-5" target="VEz_0GK65mq92pz9YE2m-1">
          <mxGeometry width="50" height="50" relative="1" as="geometry">
            <mxPoint x="70" y="270" as="sourcePoint" />
            <mxPoint x="120" y="220" as="targetPoint" />
          </mxGeometry>
        </mxCell>
        <mxCell id="VEz_0GK65mq92pz9YE2m-14" value="" style="endArrow=none;html=1;rounded=0;entryX=0.5;entryY=1;entryDx=0;entryDy=0;exitX=0.5;exitY=0;exitDx=0;exitDy=0;" edge="1" parent="1" source="VEz_0GK65mq92pz9YE2m-6" target="VEz_0GK65mq92pz9YE2m-1">
          <mxGeometry width="50" height="50" relative="1" as="geometry">
            <mxPoint x="170" y="320" as="sourcePoint" />
            <mxPoint x="220" y="270" as="targetPoint" />
          </mxGeometry>
        </mxCell>
        <mxCell id="VEz_0GK65mq92pz9YE2m-15" value="" style="endArrow=none;html=1;rounded=0;entryX=0;entryY=0.5;entryDx=0;entryDy=0;exitX=1;exitY=0.5;exitDx=0;exitDy=0;" edge="1" parent="1" source="VEz_0GK65mq92pz9YE2m-1" target="VEz_0GK65mq92pz9YE2m-7">
          <mxGeometry width="50" height="50" relative="1" as="geometry">
            <mxPoint x="390" y="430" as="sourcePoint" />
            <mxPoint x="440" y="380" as="targetPoint" />
          </mxGeometry>
        </mxCell>
        <mxCell id="VEz_0GK65mq92pz9YE2m-19" value="cSAPAT" style="rounded=0;whiteSpace=wrap;html=1;" vertex="1" parent="1">
          <mxGeometry x="45" y="520" width="155" height="65" as="geometry" />
        </mxCell>
        <mxCell id="VEz_0GK65mq92pz9YE2m-20" value="NEV&lt;br&gt;EDZŐ&lt;br&gt;LOGO" style="whiteSpace=wrap;html=1;aspect=fixed;" vertex="1" parent="1">
          <mxGeometry x="60" y="585" width="125" height="125" as="geometry" />
        </mxCell>
        <mxCell id="VEz_0GK65mq92pz9YE2m-21" value="jATEKOS" style="rounded=0;whiteSpace=wrap;html=1;" vertex="1" parent="1">
          <mxGeometry x="460" y="520" width="155" height="65" as="geometry" />
        </mxCell>
        <mxCell id="VEz_0GK65mq92pz9YE2m-23" value="Nev" style="whiteSpace=wrap;html=1;aspect=fixed;" vertex="1" parent="1">
          <mxGeometry x="475" y="585" width="125" height="125" as="geometry" />
        </mxCell>
        <mxCell id="VEz_0GK65mq92pz9YE2m-24" value="PK: Név" style="rounded=0;whiteSpace=wrap;html=1;" vertex="1" parent="1">
          <mxGeometry x="50" y="710" width="145" height="60" as="geometry" />
        </mxCell>
        <mxCell id="VEz_0GK65mq92pz9YE2m-25" value="PK: Név" style="rounded=0;whiteSpace=wrap;html=1;" vertex="1" parent="1">
          <mxGeometry x="465" y="710" width="145" height="60" as="geometry" />
        </mxCell>
        <mxCell id="VEz_0GK65mq92pz9YE2m-26" value="Jatekosa" style="rounded=0;whiteSpace=wrap;html=1;" vertex="1" parent="1">
          <mxGeometry x="260" y="530" width="120" height="60" as="geometry" />
        </mxCell>
        <mxCell id="VEz_0GK65mq92pz9YE2m-27" value="Csapatnév&lt;br&gt;Jatekos nev&lt;br&gt;Mezszam" style="whiteSpace=wrap;html=1;aspect=fixed;" vertex="1" parent="1">
          <mxGeometry x="250" y="590" width="140" height="140" as="geometry" />
        </mxCell>
        <mxCell id="VEz_0GK65mq92pz9YE2m-28" value="" style="endArrow=none;html=1;rounded=0;exitX=1;exitY=0.5;exitDx=0;exitDy=0;" edge="1" parent="1" source="VEz_0GK65mq92pz9YE2m-27">
          <mxGeometry width="50" height="50" relative="1" as="geometry">
            <mxPoint x="425" y="690" as="sourcePoint" />
            <mxPoint x="475" y="640" as="targetPoint" />
          </mxGeometry>
        </mxCell>
        <mxCell id="VEz_0GK65mq92pz9YE2m-30" value="" style="endArrow=none;html=1;rounded=0;entryX=-0.037;entryY=0.394;entryDx=0;entryDy=0;entryPerimeter=0;" edge="1" parent="1" target="VEz_0GK65mq92pz9YE2m-27">
          <mxGeometry width="50" height="50" relative="1" as="geometry">
            <mxPoint x="185" y="635" as="sourcePoint" />
            <mxPoint x="235" y="585" as="targetPoint" />
          </mxGeometry>
        </mxCell>
      </root>
    </mxGraphModel>
  </diagram>
</mxfile>
